<svg width="176" height="55" viewBox="0 0 176 55" fill="none" xmlns="http://www.w3.org/2000/svg">
<path d="M11.779 37.1989L5.86503 44.0591V12.7151L19.1123 27.0269L42.0585 0.650581L43.123 1.7151L15.9188 33.2957L11.779 28.6828V37.1989Z" fill="black"/>
<path d="M35.5532 13.0699L0.424179 54.3494H1.25213L17.693 35.3064L20.7682 39.8011L29.994 28.5645V44.4139H45.3703L42.4134 39.8011H35.5532V13.0699Z" fill="#FFDF1B"/>
<rect x="51.2843" y="8.81186" width="0.946235" height="34.301" fill="black"/>
<path d="M128.744 22.4774L134.184 32.8857L134.275 33.0595H129.981L129.95 32.9892L129.035 30.9296H123.981L122.949 32.994L122.917 33.0595H118.743L118.836 32.8847L124.395 22.4765L124.428 22.414H128.711L128.744 22.4774ZM126.261 25.1239L124.104 28.8603L124.002 29.038H128.726L128.624 28.8603L126.466 25.1239L126.42 25.1503L126.392 25.1347L126.29 25.0751L126.261 25.1239Z" fill="black"/>
<path d="M139.036 22.6505C142.658 22.3239 145.288 22.8643 146.998 23.8565C148.711 24.8504 149.503 26.3011 149.426 27.7725C149.35 29.2399 148.411 30.6984 146.727 31.7188C145.147 32.6759 142.907 33.2511 140.083 33.0987L139.51 33.0587H135.618V22.6505H139.036ZM144.386 25.2901C143.259 24.6443 141.5 24.3351 139.032 24.6622L138.929 24.6758V31.1661H139.513C143.327 31.8166 145.751 29.9113 145.922 27.9239C146.008 26.9269 145.517 25.9387 144.386 25.2901Z" fill="black"/>
<path d="M151.704 32.9408V22.5323H160.456V24.543H155.134V26.672H160.101V28.5645H155.134V31.0484H160.811V32.9408H151.704Z" fill="black"/>
<path d="M166.483 22.4137C169.637 22.2729 171.593 22.5871 172.727 23.1481C173.296 23.4298 173.665 23.7774 173.87 24.1667C174.074 24.5564 174.108 24.9762 174.03 25.3913C173.874 26.2155 173.274 27.0351 172.649 27.6266C172.335 27.9238 172.01 28.169 171.722 28.3317C171.578 28.4129 171.441 28.4748 171.318 28.5124C171.306 28.5161 171.293 28.5179 171.281 28.5212C172.171 29.3298 174.574 31.6337 175.797 32.8571L176 33.0593H171.626L171.592 33.0026C170.369 31.0263 169.259 30.0201 168.379 29.5593C167.549 29.1242 166.933 29.1804 166.607 29.3464V33.0593H162.822V22.4137H166.483ZM168.906 24.2555C168.201 24.038 167.333 24.0082 166.451 24.3122L166.371 24.3405V27.3815H166.725C168.329 27.3815 169.356 27.1295 169.93 26.7516C170.219 26.5614 170.401 26.3352 170.475 26.0876C170.55 25.839 170.512 25.5836 170.394 25.3473C170.16 24.88 169.606 24.4719 168.906 24.2555Z" fill="black"/>
<path d="M101.79 22.414H98.2412V32.9408H107.349V30.9301H101.79V22.414Z" fill="black"/>
<path d="M109.359 32.9408V22.5323H118.467V24.6613H112.79V26.7903H117.876V28.6828H112.79V31.0484H118.467V32.9408H109.359Z" fill="black"/>
<path d="M58.8542 32.9408V22.6505H63.8219L67.4886 29.8656L70.9187 22.6505H76.2413V32.9408H72.8112V24.8978L68.7897 32.9408H65.8327L61.9295 25.1344V32.9408H58.8542Z" fill="black" stroke="black" stroke-width="0.236559"/>
<path d="M82.5101 29.3925L77.1875 22.5323H81.6821L84.5208 26.672L87.0047 22.5323H91.0262L85.8219 29.3925V33.0591H82.5101V29.3925Z" fill="black" stroke="black" stroke-width="0.236559"/>
</svg>
